<svg xmlns="http://www.w3.org/2000/svg" viewBox="0 0 720 420" role="img" aria-labelledby="title desc">
  <title id="title">COOKIES &amp; STORAGE feature illustration</title>
  <desc id="desc">A lightweight PDFdukan workflow illustration for COOKIES &amp; STORAGE.</desc>
  <defs>
    <linearGradient id="bg" x1="0" y1="0" x2="1" y2="1"><stop stop-color="#101827"/><stop offset="1" stop-color="#1e293b"/></linearGradient>
    <linearGradient id="accent" x1="0" y1="0" x2="1" y2="1"><stop stop-color="#ff6333"/><stop offset="1" stop-color="#f59e0b"/></linearGradient>
    <filter id="shadow" x="-20%" y="-20%" width="140%" height="140%"><feDropShadow dx="0" dy="10" stdDeviation="12" flood-color="#020617" flood-opacity=".28"/></filter>
  </defs>
  <rect width="720" height="420" rx="28" fill="url(#bg)"/>
  <circle cx="78" cy="65" r="86" fill="#f59e0b" opacity=".10"/>
  <circle cx="650" cy="352" r="110" fill="#ff6333" opacity=".08"/>
  <g filter="url(#shadow)"><rect x="105" y="88" width="255" height="250" rx="16" fill="#f8fafc"/>
    <path d="M312 88h32a16 16 0 0 1 16 16v32z" fill="#f59e0b" opacity=".25"/>
    <rect x="129" y="116" width="173" height="13" rx="6.5" fill="#f59e0b" opacity=".88"/>
    <rect x="129" y="146" width="207" height="8" rx="4" fill="#94a3b8" opacity=".42"/>
    <rect x="129" y="166" width="185" height="8" rx="4" fill="#94a3b8" opacity=".32"/>
    <text x="232.5" y="313" text-anchor="middle" font-family="Arial,sans-serif" font-size="17" font-weight="700" fill="#334155">COOKIES &amp; STORAGE</text></g><circle cx="500" cy="215" r="92" fill="#f8fafc"/><circle cx="535" cy="160" r="38" fill="#1e293b"/><g fill="#f59e0b"><circle cx="460" cy="180" r="12"/><circle cx="500" cy="235" r="13"/><circle cx="455" cy="260" r="10"/><circle cx="545" cy="250" r="11"/></g>
</svg>