<svg xmlns="http://www.w3.org/2000/svg" viewBox="0 0 640 420" role="img" aria-labelledby="t d"><title id="t">Extract embedded text from PDF</title><desc id="d">PDF pages on the left and an editable text document on the right.</desc><defs><linearGradient id="b" x1="0" y1="0" x2="1" y2="1"><stop stop-color="#f7f7ff"/><stop offset="1" stop-color="#e5e7ff"/></linearGradient><linearGradient id="a"><stop stop-color="#283593"/><stop offset="1" stop-color="#5c6bc0"/></linearGradient><filter id="s" x="-20%" y="-20%" width="140%" height="140%"><feDropShadow dy="9" stdDeviation="11" flood-opacity=".13"/></filter></defs><rect width="640" height="420" rx="28" fill="url(#b)"/><g filter="url(#s)"><path d="M62 78h206l45 45v232H62z" fill="#fff" stroke="#d9daf0" stroke-width="3"/><path d="M268 78v45h45" fill="#dde0ff" stroke="#d9daf0" stroke-width="3"/></g><g stroke="#9da3d5" stroke-width="10" stroke-linecap="round"><path d="M100 158h164"/><path d="M100 192h134"/><path d="M100 226h174"/><path d="M100 260h147"/></g><path d="M332 214h75" stroke="url(#a)" stroke-width="10" stroke-linecap="round"/><path d="M390 194l22 20-22 20" fill="none" stroke="#3f51b5" stroke-width="10" stroke-linecap="round" stroke-linejoin="round"/><g filter="url(#s)"><rect x="432" y="88" width="150" height="252" rx="14" fill="#fff" stroke="#d9daf0" stroke-width="3"/></g><g stroke="#6570bd" stroke-width="8" stroke-linecap="round"><path d="M458 136h96"/><path d="M458 170h76"/><path d="M458 204h100"/><path d="M458 238h84"/><path d="M458 272h92"/></g><circle cx="507" cy="358" r="35" fill="url(#a)"/><path d="M490 358h34M507 341v34" stroke="#fff" stroke-width="7" stroke-linecap="round"/></svg>
