<svg xmlns="http://www.w3.org/2000/svg" viewBox="0 0 720 420" role="img" aria-labelledby="title desc">
  <title id="title">PDF to DOCX feature illustration</title>
  <desc id="desc">A lightweight PDFdukan workflow illustration for PDF to DOCX.</desc>
  <defs>
    <linearGradient id="bg" x1="0" y1="0" x2="1" y2="1"><stop stop-color="#101827"/><stop offset="1" stop-color="#1e293b"/></linearGradient>
    <linearGradient id="accent" x1="0" y1="0" x2="1" y2="1"><stop stop-color="#ff6333"/><stop offset="1" stop-color="#60a5fa"/></linearGradient>
    <filter id="shadow" x="-20%" y="-20%" width="140%" height="140%"><feDropShadow dx="0" dy="10" stdDeviation="12" flood-color="#020617" flood-opacity=".28"/></filter>
  </defs>
  <rect width="720" height="420" rx="28" fill="url(#bg)"/>
  <circle cx="78" cy="65" r="86" fill="#60a5fa" opacity=".10"/>
  <circle cx="650" cy="352" r="110" fill="#ff6333" opacity=".08"/>
  <g filter="url(#shadow)"><rect x="120" y="95" width="210" height="250" rx="16" fill="#f8fafc"/>
    <path d="M282 95h32a16 16 0 0 1 16 16v32z" fill="#ff6333" opacity=".25"/>
    <rect x="144" y="123" width="128" height="13" rx="6.5" fill="#ff6333" opacity=".88"/>
    <rect x="144" y="153" width="162" height="8" rx="4" fill="#94a3b8" opacity=".42"/>
    <rect x="144" y="173" width="140" height="8" rx="4" fill="#94a3b8" opacity=".32"/>
    <text x="225" y="320" text-anchor="middle" font-family="Arial,sans-serif" font-size="17" font-weight="700" fill="#334155">PDF</text></g><path d="M326 210h82" fill="none" stroke="#60a5fa" stroke-width="10" stroke-linecap="round"/><path d="M402 190l28 20-28 20" fill="none" stroke="#60a5fa" stroke-width="10" stroke-linecap="round" stroke-linejoin="round"/><g filter="url(#shadow)"><rect x="410" y="95" width="210" height="250" rx="16" fill="#f8fafc"/>
    <path d="M572 95h32a16 16 0 0 1 16 16v32z" fill="#60a5fa" opacity=".25"/>
    <rect x="434" y="123" width="128" height="13" rx="6.5" fill="#60a5fa" opacity=".88"/>
    <rect x="434" y="153" width="162" height="8" rx="4" fill="#94a3b8" opacity=".42"/>
    <rect x="434" y="173" width="140" height="8" rx="4" fill="#94a3b8" opacity=".32"/>
    <text x="515" y="320" text-anchor="middle" font-family="Arial,sans-serif" font-size="17" font-weight="700" fill="#334155">DOCX</text></g><g fill="#94a3b8" opacity=".55"><rect x="468" y="150" width="112" height="8" rx="4"/><rect x="468" y="171" width="132" height="8" rx="4"/><rect x="468" y="192" width="92" height="8" rx="4"/></g>
</svg>